HIERARCHY
ROOT Hips
{
	OFFSET 0.0000 0.0000 0.0000
	CHANNELS 6 Xposition Yposition Zposition Zrotation Xrotation Yrotation
	JOINT Ab
	{
		OFFSET -0.0000 8.0846 -0.0000
		CHANNELS 3 Zrotation Xrotation Yrotation
		JOINT Chest
		{
			OFFSET -0.0000 25.0068 -0.0000
			CHANNELS 3 Zrotation Xrotation Yrotation
			JOINT Neck
			{
				OFFSET -0.0000 25.0068 0.0000
				CHANNELS 3 Zrotation Xrotation Yrotation
				JOINT Head
				{
					OFFSET -0.0000 10.7556 0.0000
					CHANNELS 3 Zrotation Xrotation Yrotation
					End Site
					{
						OFFSET -0.0000 16.6222 0.0000
					}
				}
			}
			JOINT LeftCollar
			{
				OFFSET -0.0000 25.0068 0.0000
				CHANNELS 3 Zrotation Xrotation Yrotation
				JOINT LeftShoulder
				{
					OFFSET 19.5556 -0.0000 0.0000
					CHANNELS 3 Zrotation Xrotation Yrotation
					JOINT LeftElbow
					{
						OFFSET 27.1828 0.0000 0.0000
						CHANNELS 3 Zrotation Xrotation Yrotation
						JOINT LeftWrist
						{
							OFFSET 23.3157 0.0000 0.0000
							CHANNELS 3 Zrotation Xrotation Yrotation
							End Site
							{
								OFFSET 0.0000 -14.6667 0.0000
							}
						}
					}
				}
			}
			JOINT RightCollar
			{
				OFFSET -0.0000 25.0068 0.0000
				CHANNELS 3 Zrotation Xrotation Yrotation
				JOINT RightShoulder
				{
					OFFSET -19.5556 0.0000 0.0000
					CHANNELS 3 Zrotation Xrotation Yrotation
					JOINT RightElbow
					{
						OFFSET -27.1828 0.0000 0.0000
						CHANNELS 3 Zrotation Xrotation Yrotation
						JOINT RightWrist
						{
							OFFSET -23.3157 0.0000 0.0000
							CHANNELS 3 Zrotation Xrotation Yrotation
							End Site
							{
								OFFSET -0.0000 -14.6667 0.0000
							}
						}
					}
				}
			}
		}
	}
	JOINT LeftHip
	{
		OFFSET 11.7333 0.0000 0.0000
		CHANNELS 3 Zrotation Xrotation Yrotation
		JOINT LeftKnee
		{
			OFFSET -0.0000 -40.8688 0.0000
			CHANNELS 3 Zrotation Xrotation Yrotation
			JOINT LeftAnkle
			{
				OFFSET -0.0000 -44.4337 0.0000
				CHANNELS 3 Zrotation Xrotation Yrotation
				End Site
				{
					OFFSET -0.0000 -4.8889 16.6222
				}
			}
		}
	}
	JOINT RightHip
	{
		OFFSET -11.7333 0.0000 0.0000
		CHANNELS 3 Zrotation Xrotation Yrotation
		JOINT RightKnee
		{
			OFFSET -0.0000 -40.8688 0.0000
			CHANNELS 3 Zrotation Xrotation Yrotation
			JOINT RightAnkle
			{
				OFFSET -0.0000 -44.4337 0.0000
				CHANNELS 3 Zrotation Xrotation Yrotation
				End Site
				{
					OFFSET -0.0000 -4.8889 16.6222
				}
			}
		}
	}
}
MOTION
Frames: 19
Frame Time: 0.010000
-4.1149 88.6967 188.8168 2.5947 359.4525 173.6232 2.0912 358.9050 358.0976 358.9319 12.0040 358.1904 2.4194 344.9123 2.2817 1.5051 10.1041 1.8243 339.3111 358.5179 8.0914 300.8554 30.5726 354.4945 16.2316 354.4298 322.3185 81.3537 1.2611 339.4362 22.3451 359.1705 355.8214 59.2143 42.0057 7.7977 338.2971 354.2379 29.4484 278.0842 352.0545 20.4027 2.0628 357.6839 358.3992 359.1399 9.9007 358.5853 358.1524 352.7217 21.8381 1.9959 351.6781 359.8076 358.9549 18.8554 9.0104 355.6223 345.8136 337.6907 
-4.1224 88.6970 188.8078 2.5923 359.4667 173.6222 2.0953 358.9241 358.1010 358.9247 11.9936 358.1945 2.3928 344.9013 2.2692 1.5308 10.1563 1.8131 339.3099 358.5136 8.1152 300.8761 30.6590 354.4759 16.2684 354.4107 322.3305 81.3389 1.2057 339.4024 22.3479 359.1824 355.8277 59.2135 41.9924 7.7996 338.4598 354.2808 29.6101 277.8587 352.5369 21.0048 2.0515 357.7102 358.3857 359.1428 9.8884 358.5859 358.1810 352.7267 21.8452 1.9861 351.6985 359.8100 358.9559 18.8596 9.0154 355.6316 345.8032 337.6818 
-4.1292 88.6969 188.8047 2.5917 359.4630 173.6245 2.1045 358.9314 358.0983 358.9177 11.9825 358.1924 2.3552 344.8832 2.2474 1.5586 10.2083 1.7925 339.3063 358.5208 8.1533 300.9138 30.7847 354.4252 16.3147 354.3970 322.3712 81.3442 1.1682 339.4327 22.3499 359.1845 355.8335 59.2153 41.9982 7.8001 338.4847 354.2821 29.6477 277.8125 352.6465 21.1439 2.0459 357.7061 358.3887 359.1426 9.8930 358.5609 358.1967 352.7198 21.8678 1.9835 351.6954 359.8066 358.9531 18.8614 9.0060 355.6279 345.8037 337.6897 
-4.1366 88.6967 188.8013 2.5900 359.4595 173.6322 2.1071 358.9434 358.0988 358.9214 11.9624 358.1941 2.2797 344.8599 2.2078 1.6279 10.2728 1.7536 339.2998 358.5018 8.1438 300.9136 30.7858 354.4473 16.3332 354.3984 322.3232 81.3394 1.1966 339.4343 22.3497 359.1766 355.8377 59.2269 42.0053 7.7838 338.3324 354.2046 29.4967 278.0082 352.2048 20.5569 2.0395 357.7055 358.3916 359.1451 9.8866 358.5718 358.2171 352.7267 21.8474 1.9770 351.6947 359.8138 358.9553 18.8618 9.0106 355.6145 345.8011 337.6801 
-4.1438 88.6972 188.7970 2.5897 359.4598 173.6428 2.1113 358.9481 358.0976 358.9214 11.9611 358.1917 2.2406 344.8364 2.1828 1.6559 10.3296 1.7301 339.2959 358.5069 8.1558 300.9371 30.8707 354.4226 16.3729 354.3908 322.3561 81.3442 1.1358 339.4797 22.3495 359.1778 355.8431 59.2428 41.9850 7.7708 338.3969 354.2323 29.5823 277.9155 352.4189 20.8742 2.0336 357.7070 358.3683 359.1418 9.8840 358.5718 358.2065 352.7259 21.8606 1.9718 351.6992 359.8032 358.9519 18.8617 8.9959 355.6185 345.7947 337.6976 
-4.1495 88.6978 188.7921 2.5873 359.4614 173.6500 2.1139 358.9498 358.0942 358.9178 11.9635 358.1884 2.2164 344.8300 2.1761 1.6966 10.3690 1.7251 339.2962 358.5234 8.1561 300.9437 30.8676 354.4117 16.3379 354.4079 322.3762 81.3826 1.1005 339.4624 22.3481 359.1760 355.8655 59.2807 41.9680 7.7362 338.4880 354.2665 29.7469 277.7356 352.8464 21.4535 2.0293 357.7195 358.3623 359.1336 9.8659 358.5715 358.1991 352.7328 21.8710 1.9660 351.7054 359.8052 358.9508 18.8576 9.0056 355.6025 345.7960 337.6763 
-4.1555 88.6971 188.7891 2.5874 359.4546 173.6615 2.1201 358.9497 358.0903 358.9138 11.9597 358.1847 2.1828 344.8095 2.1551 1.7156 10.4207 1.7033 339.2962 358.4997 8.1657 300.9493 30.9395 354.4029 16.4240 354.3747 322.3663 81.3874 1.0720 339.5153 22.3501 359.1780 355.8584 59.2596 41.9721 7.7673 338.5109 354.2519 29.7263 277.7620 352.8229 21.4843 2.0266 357.7088 358.3469 359.1325 9.8730 358.5774 358.1836 352.7197 21.8536 1.9615 351.7069 359.8089 358.9556 18.8524 8.9833 355.5999 345.7746 337.6673 
-4.1611 88.6977 188.7858 2.5849 359.4493 173.6669 2.1255 358.9518 358.0861 358.9039 11.9512 358.1820 2.1443 344.8074 2.1393 1.7671 10.4572 1.6882 339.2985 358.5002 8.1890 300.9643 30.9993 354.3813 16.4378 354.3828 322.4102 81.4365 1.0319 339.5496 22.3558 359.1655 355.8718 59.2648 41.9714 7.7490 338.5232 354.2444 29.7584 277.6462 352.9581 21.5062 2.0222 357.7025 358.3398 359.1228 9.8708 358.6106 358.2028 352.7237 21.8426 1.9563 351.7074 359.8259 358.9614 18.8486 8.9739 355.6091 345.7698 337.6505 
-4.1670 88.6984 188.7822 2.5824 359.4506 173.6770 2.1275 358.9601 358.0835 358.8974 11.9457 358.1800 2.0953 344.7823 2.1204 1.8485 10.5277 1.6676 339.3024 358.5053 8.1942 300.9673 31.0255 354.3674 16.4515 354.3788 322.4394 81.4754 0.9816 339.5503 22.3652 359.1865 355.8790 59.2437 41.9644 7.7612 338.5908 354.2746 29.7796 277.3534 353.1870 21.5670 2.0130 357.6985 358.3246 359.1129 9.8709 358.6549 358.2530 352.7373 21.8392 1.9479 351.7156 359.8369 358.9681 18.8402 8.9674 355.8719 345.6063 337.5394 
-4.1740 88.6998 188.7783 2.5787 359.4530 173.6848 2.1205 358.9627 358.0877 358.9034 11.9570 358.1837 2.0708 344.7691 2.1029 1.8600 10.5595 1.6505 339.3163 358.5061 8.1312 300.8970 30.7685 354.4296 16.3155 354.4232 322.3655 81.5142 0.9937 339.3410 22.3563 359.1795 355.8962 59.2717 41.9499 7.7405 338.5358 354.2289 29.7754 277.5877 353.0339 21.5668 2.0124 357.7270 358.3212 359.1071 9.8310 358.6045 358.2666 352.7584 21.8739 1.9417 351.7215 359.8181 358.9587 18.8387 8.9735 355.5472 345.7783 337.6287 
-4.1792 88.7010 188.7780 2.5800 359.4470 173.6978 2.1212 358.9670 358.0882 358.9048 11.9562 358.1835 2.0725 344.7636 2.0984 1.8474 10.5726 1.6460 339.3210 358.5225 8.1170 300.8913 30.7166 354.4162 16.2780 354.4039 322.3516 81.4978 1.0066 339.2822 22.3512 359.1780 355.8998 59.2811 41.9304 7.7379 338.5115 354.2374 29.7632 277.7686 352.8895 21.5505 2.0138 357.7248 358.3157 359.1112 9.8264 358.5668 358.2549 352.7667 21.8793 1.9427 351.7187 359.8163 358.9560 18.8328 8.9613 355.5035 345.7794 337.6227 
-4.1830 88.7021 188.7767 2.5782 359.4434 173.7115 2.1183 358.9772 358.0878 358.9021 11.9412 358.1847 2.0725 344.7648 2.0913 1.8415 10.5846 1.6394 339.3298 358.5167 8.1097 300.8807 30.6666 354.4198 16.2488 354.4235 322.3230 81.5125 1.0010 339.2700 22.3554 359.1717 355.8851 59.2524 41.9546 7.7668 338.5581 354.2460 29.7678 277.4678 353.0951 21.5851 2.0045 357.6957 358.3019 359.1203 9.8725 358.5692 358.1921 352.7264 21.8581 1.9406 351.7162 359.8180 358.9525 18.8373 8.9327 355.5981 345.7579 337.6543 
-4.1889 88.7040 188.7742 2.5742 359.4420 173.7235 2.1143 358.9803 358.0909 358.8987 11.9451 358.1875 2.0798 344.7622 2.0907 1.8349 10.5937 1.6383 339.3286 358.5258 8.1180 300.9020 30.6974 354.3966 16.2257 354.4263 322.3471 81.5460 0.9689 339.2693 22.3524 359.1729 355.8845 59.2431 41.9511 7.7840 338.5822 354.2513 29.7705 277.3887 353.1821 21.5884 1.9965 357.6938 358.2761 359.1145 9.8718 358.5625 358.2087 352.7271 21.8815 1.9331 351.7175 359.8025 358.9442 18.8388 8.9510 355.6511 345.7363 337.6556 
-4.1948 88.7057 188.7729 2.5702 359.4341 173.7297 2.1162 358.9787 358.0958 358.8891 11.9482 358.1936 2.0924 344.7569 2.0946 1.8279 10.6006 1.6412 339.3305 358.5112 8.1211 300.9134 30.7388 354.3885 16.2816 354.3957 322.3151 81.5244 0.9650 339.3254 22.3543 359.1950 355.8837 59.2240 41.9333 7.8095 338.6415 354.2797 29.7444 277.3987 353.1585 21.5820 1.9948 357.7017 358.2660 359.1065 9.8358 358.5577 358.2023 352.7418 21.8892 1.9246 351.7090 359.8025 358.9461 18.8432 8.9620 355.6545 345.7184 337.6325 
-4.2022 88.7064 188.7713 2.5662 359.4352 173.7358 2.1190 358.9882 358.1009 358.8772 11.9521 358.1999 2.0777 344.7489 2.0886 1.8414 10.6160 1.6359 339.3342 358.5135 8.1178 300.9161 30.6996 354.3911 16.2295 354.4312 322.3166 81.5509 0.9295 339.2745 22.3495 359.1734 355.8782 59.2114 41.9849 7.8287 338.5647 354.2606 29.7109 277.6710 352.9743 21.5241 1.9914 357.7017 358.2493 359.0770 9.8294 358.5988 358.2937 352.7664 21.9157 1.9126 351.7169 359.8135 358.9579 18.8335 8.9287 355.6688 345.7180 337.6304 
-4.2099 88.7074 188.7712 2.5591 359.4254 173.7436 2.1247 358.9873 358.1023 358.8596 11.9515 358.2038 2.0644 344.7409 2.0847 1.8539 10.6329 1.6325 339.3354 358.5150 8.1242 300.9294 30.7337 354.3846 16.2364 354.4172 322.3193 81.5744 0.8859 339.2804 22.3520 359.1673 355.8729 59.1812 42.0179 7.8535 338.5666 354.2567 29.6894 277.7204 352.9038 21.5139 1.9827 357.6837 358.2346 359.0650 9.8356 358.6265 358.2652 352.7635 21.9007 1.8969 351.7081 359.8106 358.9646 18.8410 8.8971 355.6723 345.7134 337.6515 
-4.2173 88.7077 188.7663 2.5527 359.4223 173.7560 2.1274 358.9809 358.1029 358.8496 11.9622 358.2049 2.0568 344.7331 2.0865 1.8619 10.6520 1.6340 339.3430 358.5201 8.1020 300.9051 30.6575 354.4198 16.1956 354.4193 322.2640 81.6094 0.8891 339.2395 22.3451 359.1872 355.8804 59.1619 42.0148 7.8726 338.6595 354.2821 29.7085 277.4404 353.1527 21.5872 1.9734 357.6672 358.2044 359.0751 9.8700 358.5675 358.2994 352.7396 21.9334 1.8823 351.7142 359.8131 358.9657 18.8598 8.8395 355.6409 345.6945 337.6958 
-4.2248 88.7074 188.7670 2.5472 359.4134 173.7720 2.1395 358.9864 358.0995 358.8236 11.9508 358.2042 2.0519 344.7415 2.0840 1.8581 10.6621 1.6323 339.3451 358.5227 8.1005 300.9053 30.6055 354.4325 16.1724 354.4315 322.2269 81.6165 0.8769 339.1949 22.3531 359.1790 355.8843 59.1416 42.0468 7.8783 338.6586 354.2778 29.7200 277.4189 353.2081 21.5922 1.9638 357.6513 358.2020 359.0818 9.8803 358.5284 358.3079 352.7397 21.9398 1.8688 351.7080 359.7990 358.9655 18.8627 8.8211 355.7089 345.6638 337.7225 
-4.2332 88.7072 188.7618 2.5371 359.4168 173.7848 2.1564 358.9996 358.0936 358.7843 11.9358 358.2019 2.0477 344.7558 2.0798 1.8503 10.6688 1.6292 339.3434 358.5194 8.1259 300.9301 30.6873 354.4299 16.2247 354.4088 322.2355 81.6233 0.8447 339.2858 22.3708 359.1893 355.8978 59.1203 42.0492 7.8725 338.6033 354.2679 29.5454 277.5595 352.6685 21.1969 1.9471 357.6515 358.1952 359.0822 9.8888 358.5262 358.2640 352.7353 21.9241 1.8468 351.7191 359.7996 358.9775 18.8531 8.7625 355.8037 345.6283 337.7715 
